<?xml version="1.0" encoding="utf-8"?>
<!-- Generator: Adobe Illustrator 25.3.0, SVG Export Plug-In . SVG Version: 6.00 Build 0)  -->
<svg version="1.1" id="Capa_1" xmlns="http://www.w3.org/2000/svg" x="0px"
     y="0px"
     viewBox="0 0 200 200" style="enable-background:new 0 0 200 200;" xml:space="preserve">
<style type="text/css">
	.st0{fill:#FFFFFF;}
</style>
    <g transform="scale(1.8) translate(-40, -45)">
	<!-- <path class="st0" d="M100,1.2L15.5,50.6v98.7l84.5,49.4l84.5-49.4V50.6L100,1.2z M169.9,141L100,181.8L30.1,141V59L100,18.2 L169.9,59V141z"/> -->
    <path class="st0" d="M58,68.8c0,3.9,3.2,7.1,7.1,7.1h72.1c3.9,0,7.1-3.2,7.1-7.1s-3.2-7.1-7.1-7.1H65.2C61.2,61.6,58,64.8,58,68.8z"/>
    <path class="st0" d="M119.3,100.9V100c0-3.9-3.2-7.1-7.1-7.1H51c-3.9,0-7.1,3.2-7.1,7.1v0.9c0,3.9,3.2,7.1,7.1,7.1h61.1 C116.1,108,119.3,104.8,119.3,100.9z"/>
    <path class="st0" d="M137.2,125.5H65.2c-3.9,0-7.1,3.2-7.1,7.1s3.2,7.1,7.1,7.1h72.1c3.9,0,7.1-3.2,7.1-7.1 S141.2,125.5,137.2,125.5z"/>
    </g>
</svg>
