<svg xmlns="http://www.w3.org/2000/svg" viewBox="740 0 840 390">
    <!-- <defs> -->
    <!--     <style>.cls-1{fill:#2e3034;}.cls-2{fill:url(#未命名的渐变_7);}.cls-3{fill:#1be1f6;}</style> -->
    <!--     <linearGradient id="未命名的渐变_7" x1="816.73" y1="195.1" x2="1492.16" y2="195.1" -->
    <!--                     gradientUnits="userSpaceOnUse"> -->
    <!--         <stop offset="0" stop-color="#4190ff"/> -->
    <!--         <stop offset="1" stop-color="#1be1f6"/> -->
    <!--     </linearGradient> -->
    <!-- </defs> -->
    <g id="图层_1-2" fill="#ffffff">
        <path class="cls-2"
              d="M937.33,390.21c-107.58,0-195.1-87.52-195.1-195.1S829.75,0,937.33,0a193.92,193.92,0,0,1,137.17,56.36l.16.15,52.64,52.64-54.52,54.52-52.56-52.56a118,118,0,1,0,.56,167.43l53.91-53.91,54.52,54.52-53.91,53.91A193.83,193.83,0,0,1,937.33,390.21Z"/>
        <path class="cls-2"
              d="M1379.86,390.21a194,194,0,0,1-137-56.17l-.38-.38L1105.28,194.51,1241.9,57.14A193.83,193.83,0,0,1,1379.86,0C1487.44,0,1575,87.52,1575,195.1S1487.44,390.21,1379.86,390.21ZM1297.2,279.31a118,118,0,1,0-.76-167.67l-82.64,83.1Z"/>
    </g>
</svg>
