<svg version="1.1" id="Layer_1" xmlns="http://www.w3.org/2000/svg" xmlns:xlink="http://www.w3.org/1999/xlink" x="0px" y="0px"
     viewBox="0 0 100 100" enable-background="new 0 0 100 100" xml:space="preserve" width="100%" height="100%">
  <g style="transform: scale(0.5); transform-origin: center;">
    <polygon fill="#B3B3B3" stroke="#000000" stroke-width="3" stroke-linecap="round" stroke-linejoin="round" stroke-miterlimit="10" points="
    10,79.8 44.1,60.9 44.1,10.4 10,29.2  "/>
      <polygon fill="#B3B3B3" stroke="#000000" stroke-width="3" stroke-linecap="round" stroke-linejoin="round" stroke-miterlimit="10" points="
    90,70.4 44.1,60.9 44.1,10.4 90,19.8  "/>
      <polygon fill="#B3B3B3" stroke="#000000" stroke-width="3" stroke-linecap="round" stroke-linejoin="round" stroke-miterlimit="10" points="
    44.1,61.2 90,70.6 55.9,89.4 10,80  "/>
      <polygon fill="#FFFFFF" stroke="#000000" stroke-width="3" stroke-linecap="round" stroke-linejoin="round" stroke-miterlimit="10" points="
    44.1,10.6 90,20 55.9,38.8 10,29.4 "/>
      <polygon fill="#E6E6E6" stroke="#000000" stroke-width="3" stroke-linecap="round" stroke-linejoin="round" stroke-miterlimit="10" points="
    55.9,89.4 90,70.6 90,20 55.9,38.8 "/>
      <polygon fill="#FFFFFF" stroke="#000000" stroke-width="3" stroke-linecap="round" stroke-linejoin="round" stroke-miterlimit="10" points="
    55.9,89.4 10,80 10,29.4 55.9,38.8 "/>
      <path fill="#A67C52" stroke="#000000" stroke-width="3" stroke-linecap="round" stroke-linejoin="round" stroke-miterlimit="10" d="
    M37,52.2c-0.1,2.8-2.3,4.4-5,3.7c-2.8-0.7-5-3.6-5-6.4c0-2.8,1.7-4.6,5-3.7C31.8,49.2,34.4,51.7,37,52.2z"/>
      <path fill="#A67C52" stroke="#000000" stroke-width="3" stroke-linecap="round" stroke-linejoin="round" stroke-miterlimit="10" d="
    M35.6,66.2l-7.4-2c-3.2-0.9-5.8-4.2-5.8-7.4v0c0-3.2,2.6-4.4,5.8-3.5l7.4,2c3.2,0.9,5.8,3.4,5.8,6.7v0
    C41.5,65.1,38.9,67.1,35.6,66.2z"/>
      <path fill="#A67C52" stroke="#000000" stroke-width="3" stroke-linecap="round" stroke-linejoin="round" stroke-miterlimit="10" d="
    M39.6,74.6l-15.3-4.1c-3.2-0.9-5.8-3.4-5.8-6.7v0c0-3.2,2.6-5.1,5.8-4.3l15.3,4.1c3.2,0.9,5.8,4.2,5.8,7.4v0
    C45.4,74.3,42.8,75.4,39.6,74.6z"/>
  </g>
</svg>
