<svg xmlns="http://www.w3.org/2000/svg" version="1.1" id="Joker2Yue" viewBox="0 0 200 200" xml:space="preserve" >
    <g transform="scale(4) translate(-25, -25)">
        <circle cx="50" cy="54.701" r="14.513" fill="#e0e0e0"/>
        <path d="M70.95 50.337c.277-1.261-.625-2.857-2.089-2.8 1.485-1.31 1.489-3.343.924-4.828-.262-.688-1.652-1.12-1.652-1.12s1.101-1.844.635-2.845c-.571-1.224-2.278-2.049-3.672-1.541.529-1.576.481-3.448-.78-4.664-1.261-1.216-3.956-1.213-4.748.276.082-1.384-.867-2.773-2.299-3.364s-3.258-.348-4.425.589c-.781-1.161-2.377-1.858-3.906-1.706s-2.905 1.146-3.369 2.431c-1.961-.507-4.088-.953-6.015-.355-1.927.598-3.376 2.674-2.367 4.232-3.518.171-6.14 3.881-4.747 6.717-1.679.272-3.071 1.571-3.277 3.056-.206 1.485.792 3.037 2.348 3.653-1.581.551-2.647 2.068-2.496 3.552.15 1.484 1.713 3.878 3.171 3.111-2.105 1.107-.928 3.011-.226 3.566.702.555 2.376.476 2.376.476s-.922 2.519.765 2.948c.691.176 1.429.02 2.028-.33a14.44 14.44 0 0 1-1.642-6.69c0-8.016 6.498-14.513 14.513-14.513s14.513 6.498 14.513 14.513c0 2.767-.788 5.344-2.132 7.545.714-.149 1.379-.386 1.796-.598 1.074-.547 2.447-2.339 1.72-3.221 1.216.029 2.252-.241 3.113-1.203.389-.435.866-1.691.899-2.229.034-.545-.293-2.065-.903-2.209.063-.033.125-.068.185-.105.903-.541 1.552-1.402 1.759-2.344z" fill="#e15b64"/>
        <circle cx="50" cy="56.938" r="4" fill="#e15b64"/>
    </g>
</svg>
